<svg id="Camada_1" data-name="Camada 1" xmlns="http://www.w3.org/2000/svg" viewBox="0 0 239.24 81.7"><defs><style>.cls-1,.cls-2{fill:#fff;}.cls-2{font-size:21px;font-family:Montserrat-Black, Montserrat;font-weight:800;}.cls-3{letter-spacing:0.01em;}</style></defs><path class="cls-1" d="M31.458,39.721H18.764c.327.4.557.7.817.98.285.306.3.53-.077.794a12.975,12.975,0,0,0-1.068.914c.358.545.689,1.061,1.034,1.566.191.279.211.519-.1.716-.487.306-.464.638-.158,1.087a11.356,11.356,0,0,1,.708,1.4,2.63,2.63,0,0,1,.311-.091c.349-.056.511.142.4.474-.037.111-.118.266-.073.336A.972.972,0,0,1,20.5,49a1.541,1.541,0,0,1,1.419-.363c.081.026.267-.19.372-.319.658-.812,1.272-1.661,1.969-2.439a5.1,5.1,0,0,1,2.99-1.852,2.484,2.484,0,0,1,2.517.926,2.109,2.109,0,0,1,.123,2.554,16.3,16.3,0,0,1-3.868,4.533,5.916,5.916,0,0,0-2.252,3.809,1.909,1.909,0,0,1-1.674,1.7,8.45,8.45,0,0,1-1.757.095.869.869,0,0,1-.83-.683c-.151-.59-.2-1.211-.389-1.786a10.438,10.438,0,0,0-.8-1.689c-.091-.165-.34-.246-.57-.4l.07-.292-.894-.691.155-.085c-.251-.055-.612-.026-.732-.179-.336-.428.142-.644.359-.872a8.219,8.219,0,0,1-2.7-3.483c-.28.128-.56.236-.82.379a1.446,1.446,0,0,1-1.631.01,1.817,1.817,0,0,0-2.373.111,7.733,7.733,0,0,1-1.267.671.418.418,0,0,0-.275.513,14.676,14.676,0,0,1,.1,1.689,2.708,2.708,0,0,1-.194.7l.109.886c.641.229.707.351.523.9l-1.995.927.068.168c.137-.039.279-.068.412-.119.417-.16.822-.357,1.25-.48a1.226,1.226,0,0,1,.742.011c.159.064.234.324.347.5a2.045,2.045,0,0,1-.445.239c-.28.07-.62-.006-.793.43a1.424,1.424,0,0,1,1.522.31l-.585.438c.608.261,1.181.528,1.77.755a4.7,4.7,0,0,1,2.213,1.436,1.554,1.554,0,0,1-.525,2.535,6.592,6.592,0,0,1-2.883.815,10.791,10.791,0,0,1-3.631-.243,1.428,1.428,0,0,1-.689-.3A2.139,2.139,0,0,0,3.438,60.2a6.772,6.772,0,0,1-.938-.188,1.009,1.009,0,0,1-.808-.9c-.043-.763,0-1.532.026-2.3a.65.65,0,0,1,.161-.386,1.378,1.378,0,0,0,.4-1.256c-.083-.494.365-.8.879-.722.215.032.43.057.645.085l.039-.164a2.321,2.321,0,0,0-.8-.176c-.265.041-.407.006-.476-.221-.078-.252-.1-.51.272-.6-.035-.064-.1-.124-.094-.18.057-1.033-.938-1.6-1.169-2.509-.019-.076-.261-.136-.4-.139A11.316,11.316,0,0,1-4.258,49a.855.855,0,0,1-.539-1.05c.187-.855.3-1.726.438-2.583A1.582,1.582,0,0,1-5.186,43.1a2.1,2.1,0,0,0,.067-.812,1.711,1.711,0,0,1,.1-.663,1.631,1.631,0,0,1,.425,1.559c-.042.15-.118.292-.163.442a.8.8,0,0,0,.448,1.091c.506.123,1.147-.222,1.151-.731A29.575,29.575,0,0,0-3.3,40.423a2.772,2.772,0,0,0-1.291-1.76.83.83,0,0,1-.337-1c.44-1.844.836-3.7,1.258-5.595-.529-.082-1-.139-1.464-.233a9.461,9.461,0,0,1-1.346-.348c-.35-.127-.536-.024-.607.288a10.041,10.041,0,0,0-.355,1.883c-.036,1.271.027,2.545.061,3.817a3.3,3.3,0,0,1-.773,2.311,4.454,4.454,0,0,0,.014,5.44,1.474,1.474,0,0,0,1.146.7c.428.036.53-.11.46-.525-.08-.477-.133-.961-.165-1.444-.023-.34,0-.342.347-.353.186.654.4,1.281.526,1.925a.8.8,0,0,1-.27.63,1.716,1.716,0,0,1-2.369-.288A5.108,5.108,0,0,1-9.6,43.114,4.96,4.96,0,0,1-9.244,40.4a6.466,6.466,0,0,0,.184-.666h-9.583a4.17,4.17,0,0,1-.046-.43q.009-20.325.023-40.649c0-.668-.006-.663.678-.663q7.708,0,15.417-.017a.618.618,0,0,0,.473-.2A38.231,38.231,0,0,0,.732-8.349c.209-.72.217-.717-.533-.874-.3-.062-.593-.133-.89-.2A2.339,2.339,0,0,1-2.3-10.594a5.041,5.041,0,0,0-3.348-2.168,1.962,1.962,0,0,0-1.288.356,3.1,3.1,0,0,0-1.314,1.747c-.092.267-.165.541-.271.8a1.1,1.1,0,0,1-1.2.747.924.924,0,0,1-.915-.877,8.707,8.707,0,0,1,.142-2.137,8.322,8.322,0,0,1,4.924-5.948,31.752,31.752,0,0,1,6.409-2.25,1.734,1.734,0,0,1,1.1.19c2.54,1.3,5.083,2.605,7.581,3.984a41.355,41.355,0,0,1,4,2.529,22.752,22.752,0,0,1,5.326,5.47q2.1,2.962,4.2,5.923a.542.542,0,0,0,.334.2,5.852,5.852,0,0,0,.817.034q3.324-.015,6.648-.035h.617Zm-.773-.841V-1.2H23.648c2.262,3.543,1.839,7.361,1.477,11.167.639.126.88.467.806,1.153a3.749,3.749,0,0,1-1.081,2.267c-.814.814-1.738,1.523-2.619,2.271-.225.191-.466.363-.628.488l.642,2.15-.875-.666-.1.073a22.827,22.827,0,0,1,2.736,6.587,2.334,2.334,0,0,1-.363-.438,9.52,9.52,0,0,0-4.179-3.513,11.741,11.741,0,0,1-3.755-2.228.707.707,0,0,0-.852-.215,7.4,7.4,0,0,1,.976,1.525,2.3,2.3,0,0,1-2.083,2.83,2.324,2.324,0,0,1-2.516-1.478,1.881,1.881,0,0,1,.988-2.431c.111-.068.213-.149.427-.3a3.493,3.493,0,0,0-1.98.542,16.125,16.125,0,0,1-2.627,1.347,6.011,6.011,0,0,0-3.59,3.2c-.065.135-.115.277-.162.389l2.452-1.864c-2.561,3.351-2.6,7.173-2.428,11.051a12.236,12.236,0,0,1-.9-4.23c-.377,1.343-.427,2.782-1.511,3.848a4.735,4.735,0,0,0,.593-2.7c-.2-.921-.307-1.858-.474-2.9L.732,29.25.621,29.2a6.141,6.141,0,0,0,.272-1.278,19.758,19.758,0,0,0-.166-2.38C.605,24.533.43,23.528.278,22.52L.206,22.5l-.594,2.4-.152,0-.583-5.067-1.236,1.328-.082-.064.695-1.916a.863.863,0,0,0-.434.193,11.836,11.836,0,0,0-3.3,4c-.964,1.876-2.042,3.7-3.055,5.55-.318.581-.3.6.309.921a13.151,13.151,0,0,0,5.028,1.311,1.1,1.1,0,0,0,1.261-.72A23.5,23.5,0,0,1-.572,28.174c.075-.117.278-.156.422-.231.032.173.141.377.083.514C-.526,29.543-1,30.622-1.51,31.687A.668.668,0,0,1-2.028,32c-.492-.04-.633.208-.725.606-.421,1.835-.862,3.665-1.279,5.5a.419.419,0,0,0,.141.368,2.416,2.416,0,0,1,1.219,1.885A19.885,19.885,0,0,1-2.56,43.5a3.313,3.313,0,0,1-.494,1.123,2.506,2.506,0,0,0-.28.56c-.157.881-.253,1.773-.43,2.649-.073.36.049.5.342.648a9.877,9.877,0,0,0,6.457.823,20.917,20.917,0,0,0,6.558-2.484,1.384,1.384,0,0,1,1.6-.032,3.176,3.176,0,0,0,.869.394.913.913,0,0,0,.624-.012c1.763-.96,3.514-1.943,5.264-2.926a3.007,3.007,0,0,0,.407-.338c-.28-.4-.516-.77-.8-1.11-.3-.363-.321-.622.125-.894a10.252,10.252,0,0,0,.991-.781l-1.122-1.51.63-.389c-.752-.918-1.463-1.805-2.2-2.672a.548.548,0,0,1-.089-.7c.331-.726.584-1.486.867-2.234.048-.128.088-.259.131-.388l.139.036-.5,2.769.147.056c.33-.654.712-1.287.981-1.964a10.256,10.256,0,0,0,.354-4.379c-.014-.313-.032-.625-.049-.938l.21-.039a14.73,14.73,0,0,1,.638,2.327,6.7,6.7,0,0,1-1.447,5.036.555.555,0,0,0-.066.508c.41.636.88,1.235,1.3,1.868a.778.778,0,0,0,.749.376c2.779-.011,5.557,0,8.336,0Zm-7.053-27.4c.163-.631.33-1.185.448-1.749a18.059,18.059,0,0,0,.139-6.747A12.11,12.11,0,0,0,22.031-1.7q-2.572-3.81-5.354-7.484A18.458,18.458,0,0,0,12.6-13.031,70.813,70.813,0,0,0,1.414-19.375a.775.775,0,0,0-.493-.067,27.6,27.6,0,0,0-6.892,2.831,7.73,7.73,0,0,0-3.685,5.486,4.306,4.306,0,0,0-.006.745l.187.03c.091-.255.191-.507.274-.764a3.527,3.527,0,0,1,4.449-2.4,5.175,5.175,0,0,1,3.327,2.385A1.516,1.516,0,0,0-.1-10.352a8.542,8.542,0,0,1,1.139.179c.715.164,1.114.573,1.014,1.267a8,8,0,0,1-.631,2.194C.614-4.954-.261-3.224-1.146-1.5a8.127,8.127,0,0,0-.9,4.886c.253,1.881.589,3.751.9,5.624.112.674.257,1.343.392,2.044l-.632.1c.221.464.436.932.667,1.393A5.817,5.817,0,0,0,.809,14.525a15.194,15.194,0,0,0,8.158,3.023,25.16,25.16,0,0,0,6.673-.189,16.3,16.3,0,0,0,6.086-2.084,6.65,6.65,0,0,0,3.315-4.041,5.12,5.12,0,0,0,.078-.693A2.061,2.061,0,0,1,23.632,11.475ZM-17.861,38.869c3.026,0,6.011,0,9-.014a.467.467,0,0,0,.319-.324,14.642,14.642,0,0,0-.058-1.74c-.078-.8-.232-1.585-.3-2.381a7.035,7.035,0,0,1,.48-3.382c-.486-.363-.942-.682-1.371-1.034-.2-.163-.414-.347-.215-.677q1.331-2.209,2.633-4.436a12.322,12.322,0,0,0,.7-1.337,14.965,14.965,0,0,1,2.447-3.863c1.188-1.376,2.248-2.86,3.354-4.3a2.128,2.128,0,0,0,.18-.53c-.657.313-1.195.506-1.731.068A2.514,2.514,0,0,1-3.4,11.837c.122-.331.33-.412.626-.217a4.249,4.249,0,0,1,.414.351,1.592,1.592,0,0,0-.114,2.039c-.257-1.179,0-1.8.669-1.757a6.724,6.724,0,0,0-.88-.833c-.483-.371-.77-.274-.919.318a9.518,9.518,0,0,0-.15,1.056,1.461,1.461,0,0,1-.305-2.05c.752-.968,1.453-.323,2.114.24-.195-1.183-.4-2.291-.555-3.406-.225-1.633-.431-3.268-.607-4.907a8.07,8.07,0,0,1,.568-3.864h-15.32Z" transform="translate(18.689 20.35)"/><path class="cls-1" d="M6.515,24.916a14.586,14.586,0,0,0,.577,6.429c.429,1.327.878,2.649,1.312,3.975.065.2.1.406.146.609l-.13.058a21.965,21.965,0,0,1-1.2-1.958,16.73,16.73,0,0,1-1.638-5.476A5.178,5.178,0,0,1,6.515,24.916Z" transform="translate(18.689 20.35)"/><path class="cls-1" d="M20.828,24.674c.138.139.342.256.4.422a7.743,7.743,0,0,1,.566,1.876,10.611,10.611,0,0,1-1.337,6.392,6.132,6.132,0,0,1-1.2,1.375,27.933,27.933,0,0,0,1.652-4.877,14.419,14.419,0,0,0-.291-5.078Z" transform="translate(18.689 20.35)"/><path class="cls-1" d="M9.126,31.833c1.532,2.526,1.848,5.537,3.239,8.157-.364-.423-.76-.823-1.086-1.272A12.9,12.9,0,0,1,9.4,33.772c-.141-.633-.26-1.272-.389-1.908Z" transform="translate(18.689 20.35)"/><path class="cls-1" d="M20.411,22.26c2.181.793,3.946,3.834,3.991,6.865-.528-1.12-1.021-2.365-1.686-3.514S21.218,23.418,20.411,22.26Z" transform="translate(18.689 20.35)"/><path class="cls-1" d="M22.35,30.309,21.968,32.2l-.242-.049.424-1.874Z" transform="translate(18.689 20.35)"/><text class="cls-2" transform="translate(53.103 47.739)">GNOME<tspan class="cls-3" x="85.008" y="0">L</tspan><tspan x="98.175" y="0">AND</tspan></text></svg>