<svg id="Camada_1" data-name="Camada 1" xmlns="http://www.w3.org/2000/svg" viewBox="0 0 269.822 74.67"><defs><style>.cls-1{font-size:30px;font-family:Montserrat-Black, Montserrat;font-weight:800;}.cls-1,.cls-3{fill:#fff;}.cls-2{letter-spacing:0.01em;}</style></defs><text class="cls-1" transform="translate(51.686 46.48) scale(0.891 1)">GNOME<tspan class="cls-2" x="121.439" y="0">L</tspan><tspan x="140.248" y="0">AND</tspan></text><path class="cls-3" d="M56.7,57.567H44.08c.324.361.553.64.811.9.284.28.3.484-.076.725a13.028,13.028,0,0,0-1.062.836c.357.5.685.969,1.028,1.432.19.255.21.473-.1.654-.483.279-.461.582-.156.993a10.3,10.3,0,0,1,.7,1.278,2.82,2.82,0,0,1,.309-.083c.347-.052.508.129.4.433-.037.1-.117.243-.073.307a.83.83,0,0,1-.052,1.012,1.63,1.63,0,0,1,1.41-.331c.081.023.265-.174.369-.292.655-.742,1.265-1.518,1.957-2.229a5.156,5.156,0,0,1,2.972-1.693,2.584,2.584,0,0,1,2.5.847,1.806,1.806,0,0,1,.123,2.334A15.316,15.316,0,0,1,51.3,68.829a5.339,5.339,0,0,0-2.238,3.482,1.822,1.822,0,0,1-1.663,1.55,9.16,9.16,0,0,1-1.746.087.849.849,0,0,1-.825-.624c-.15-.54-.2-1.107-.387-1.632a9.15,9.15,0,0,0-.791-1.544c-.09-.151-.338-.225-.567-.367l.07-.266-.888-.633.153-.077c-.249-.05-.608-.024-.727-.163-.333-.392.142-.589.357-.8a7.633,7.633,0,0,1-2.683-3.184c-.278.117-.557.216-.815.347a1.542,1.542,0,0,1-1.621.009,1.928,1.928,0,0,0-2.359.1,7.846,7.846,0,0,1-1.259.613.379.379,0,0,0-.273.469,12.276,12.276,0,0,1,.1,1.544,2.34,2.34,0,0,1-.194.638l.109.809c.637.21.7.322.52.82l-1.982.848.067.153c.136-.036.277-.062.409-.109.415-.145.818-.326,1.243-.438a1.318,1.318,0,0,1,.737.01c.158.058.233.3.344.454a2.067,2.067,0,0,1-.442.219c-.277.064-.616-.006-.787.393a1.5,1.5,0,0,1,1.512.283l-.582.4c.605.239,1.174.483,1.76.69a4.736,4.736,0,0,1,2.2,1.313c.74.9.545,1.737-.521,2.316a7,7,0,0,1-2.866.746,11.622,11.622,0,0,1-3.608-.223,1.478,1.478,0,0,1-.685-.277,2.246,2.246,0,0,0-1.517-.506,6.952,6.952,0,0,1-.932-.172.953.953,0,0,1-.8-.823c-.043-.7,0-1.4.026-2.1a.572.572,0,0,1,.16-.353,1.2,1.2,0,0,0,.4-1.148c-.082-.452.364-.728.874-.66.213.029.427.052.641.078l.039-.15a2.481,2.481,0,0,0-.8-.161c-.262.037-.4.005-.472-.2-.078-.231-.1-.466.27-.545-.035-.059-.1-.114-.094-.165.057-.945-.931-1.463-1.161-2.293-.019-.07-.259-.125-.4-.127a11.993,11.993,0,0,1-5.4-1.419c-.445-.231-.651-.47-.535-.959.185-.782.294-1.578.435-2.361a1.4,1.4,0,0,1-.822-2.07,1.774,1.774,0,0,0,.066-.742,1.461,1.461,0,0,1,.1-.606,1.412,1.412,0,0,1,.423,1.425c-.043.138-.118.267-.163.4a.717.717,0,0,0,.446,1c.5.113,1.139-.2,1.143-.668a24.893,24.893,0,0,0-.144-3.254A2.564,2.564,0,0,0,20.866,56.6a.727.727,0,0,1-.336-.913c.437-1.685.831-3.379,1.25-5.113-.525-.076-.994-.128-1.455-.214a10,10,0,0,1-1.337-.317c-.348-.116-.533-.022-.6.263a8.4,8.4,0,0,0-.353,1.721c-.036,1.161.026,2.326.06,3.489a2.858,2.858,0,0,1-.768,2.112c-1.4,1.538-1.042,3.481.014,4.972a1.494,1.494,0,0,0,1.139.635c.425.032.527-.1.457-.48a12.232,12.232,0,0,1-.164-1.32c-.023-.311,0-.312.345-.323.185.6.4,1.171.523,1.76a.706.706,0,0,1-.269.576,1.81,1.81,0,0,1-2.354-.263,4.484,4.484,0,0,1-1.123-2.517,4.209,4.209,0,0,1,.353-2.485,5.47,5.47,0,0,0,.182-.608H6.9a3.522,3.522,0,0,1-.046-.394q.011-18.574.023-37.151c0-.611-.006-.606.674-.606q7.661,0,15.322-.015a.637.637,0,0,0,.469-.184,33.572,33.572,0,0,0,2.813-5.592c.208-.658.216-.655-.529-.8-.3-.057-.59-.122-.885-.184a2.317,2.317,0,0,1-1.6-1.07A5.066,5.066,0,0,0,19.819,9.6a2.068,2.068,0,0,0-1.279.326,2.866,2.866,0,0,0-1.306,1.6c-.092.244-.165.495-.27.734a1.106,1.106,0,0,1-1.19.683.888.888,0,0,1-.908-.8,7.287,7.287,0,0,1,.141-1.953C15.556,7.6,17.361,5.917,19.9,4.747a33.471,33.471,0,0,1,6.37-2.055,1.845,1.845,0,0,1,1.092.173c2.524,1.192,5.051,2.381,7.533,3.641a41.707,41.707,0,0,1,3.974,2.312,21.705,21.705,0,0,1,5.293,5c1.389,1.8,2.773,3.612,4.168,5.413a.552.552,0,0,0,.333.181,6.456,6.456,0,0,0,.812.03q3.3-.014,6.607-.032H56.7Zm-.768-.768V20.171H48.933c2.248,3.238,1.828,6.727,1.468,10.206.635.115.875.427.8,1.054A3.321,3.321,0,0,1,50.128,33.5c-.809.744-1.728,1.391-2.6,2.076-.223.174-.463.331-.623.445l.638,1.965-.87-.608-.1.066a20.01,20.01,0,0,1,2.719,6.02,2.112,2.112,0,0,1-.361-.4,9.309,9.309,0,0,0-4.153-3.21,11.912,11.912,0,0,1-3.731-2.037.745.745,0,0,0-.848-.2,6.636,6.636,0,0,1,.97,1.394c.428,1.168-.6,2.4-2.069,2.586a2.341,2.341,0,0,1-2.5-1.351c-.367-.891-.034-1.641.982-2.221.11-.063.211-.137.424-.275a3.707,3.707,0,0,0-1.967.5,16.6,16.6,0,0,1-2.612,1.232,5.833,5.833,0,0,0-3.567,2.927c-.064.124-.115.253-.161.355l2.437-1.7c-2.546,3.063-2.584,6.556-2.413,10.1a10.416,10.416,0,0,1-.893-3.866c-.375,1.227-.425,2.543-1.5,3.517a4.051,4.051,0,0,0,.589-2.468c-.194-.841-.3-1.7-.471-2.652L26.159,48l-.11-.044a5.247,5.247,0,0,0,.27-1.168,16.534,16.534,0,0,0-.165-2.175c-.121-.924-.295-1.843-.446-2.764l-.071-.014-.591,2.194-.151,0-.579-4.631-1.229,1.214-.081-.059L23.7,38.8a.885.885,0,0,0-.43.177,11.057,11.057,0,0,0-3.276,3.653c-.959,1.715-2.03,3.379-3.037,5.072-.316.531-.3.545.308.842a13.972,13.972,0,0,0,5,1.2,1.115,1.115,0,0,0,1.254-.658,21.3,21.3,0,0,1,1.352-2.067c.075-.107.277-.143.42-.211.031.158.139.344.082.469-.456.993-.93,1.979-1.434,2.952a.676.676,0,0,1-.515.289c-.489-.037-.629.189-.72.553-.419,1.677-.857,3.35-1.272,5.028a.368.368,0,0,0,.141.336,2.2,2.2,0,0,1,1.211,1.723,16.721,16.721,0,0,1,.112,2.865c-.013.347-.316.686-.492,1.027a2.215,2.215,0,0,0-.278.512c-.155.8-.251,1.62-.427,2.421-.072.329.048.456.34.592a10.586,10.586,0,0,0,6.417.752,21.929,21.929,0,0,0,6.517-2.27,1.473,1.473,0,0,1,1.594-.029,3.357,3.357,0,0,0,.863.36.987.987,0,0,0,.621-.011C39.8,63.5,41.535,62.6,43.275,61.7a2.9,2.9,0,0,0,.4-.309c-.279-.36-.513-.7-.792-1.014-.3-.331-.319-.569.124-.817A10.057,10.057,0,0,0,44,58.843l-1.115-1.38.626-.356c-.747-.839-1.454-1.649-2.184-2.442a.469.469,0,0,1-.088-.635c.328-.664.58-1.358.86-2.041.049-.117.088-.237.131-.356l.138.033-.5,2.532.145.05c.329-.6.708-1.176.975-1.794a8.646,8.646,0,0,0,.352-4c-.014-.285-.032-.571-.048-.857l.208-.035a12.623,12.623,0,0,1,.634,2.126,5.787,5.787,0,0,1-1.438,4.6.472.472,0,0,0-.065.464c.407.582.874,1.129,1.288,1.708a.8.8,0,0,0,.744.343c2.761-.01,5.523,0,8.284,0Zm-7.01-25.047c.162-.577.328-1.084.446-1.6a15.235,15.235,0,0,0,.138-6.166,10.706,10.706,0,0,0-2.175-4.275c-1.7-2.322-3.485-4.6-5.321-6.84A17.786,17.786,0,0,0,37.95,9.354a72.25,72.25,0,0,0-11.113-5.8.828.828,0,0,0-.49-.061A28.766,28.766,0,0,0,19.5,6.082,7.076,7.076,0,0,0,15.835,11.1a3.685,3.685,0,0,0-.005.681l.185.028c.091-.233.19-.464.272-.7a3.564,3.564,0,0,1,4.422-2.2,5.148,5.148,0,0,1,3.307,2.18,1.53,1.53,0,0,0,1.318.714,9.143,9.143,0,0,1,1.131.164c.711.15,1.107.524,1.008,1.158a6.891,6.891,0,0,1-.627,2.006c-.8,1.606-1.674,3.188-2.553,4.763a6.924,6.924,0,0,0-.893,4.465c.252,1.719.586,3.429.9,5.14.112.617.256,1.228.39,1.869l-.628.093c.22.424.434.852.663,1.273a5.392,5.392,0,0,0,1.516,1.806A15.926,15.926,0,0,0,34.343,37.3a27.216,27.216,0,0,0,6.632-.172,17.186,17.186,0,0,0,6.048-1.905,6.225,6.225,0,0,0,3.295-3.693A4.306,4.306,0,0,0,50.4,30.9,2.075,2.075,0,0,1,48.917,31.752ZM7.681,56.788c3.008,0,5.974,0,8.94-.013a.441.441,0,0,0,.317-.3,12.221,12.221,0,0,0-.057-1.589c-.078-.728-.231-1.449-.3-2.177a5.976,5.976,0,0,1,.478-3.091c-.483-.332-.936-.623-1.362-.944-.2-.15-.412-.318-.215-.62Q16.8,46.039,18.1,44a11.051,11.051,0,0,0,.7-1.222,13.548,13.548,0,0,1,2.432-3.53c1.181-1.258,2.234-2.614,3.333-3.934a1.8,1.8,0,0,0,.179-.485c-.653.287-1.188.463-1.72.063a2.2,2.2,0,0,1-.966-2.814c.121-.3.328-.376.622-.2a4.058,4.058,0,0,1,.411.321,1.367,1.367,0,0,0-.113,1.863c-.256-1.077,0-1.641.665-1.6a6.5,6.5,0,0,0-.875-.762c-.48-.339-.765-.25-.913.291a8.014,8.014,0,0,0-.149.965,1.265,1.265,0,0,1-.3-1.873c.747-.885,1.444-.3,2.1.219-.194-1.081-.4-2.094-.552-3.113-.223-1.492-.428-2.987-.6-4.485a6.847,6.847,0,0,1,.564-3.531H7.681Z" transform="translate(-6.858 -2.665)"/><path class="cls-3" d="M31.907,44.036a12.3,12.3,0,0,0,.573,5.876c.426,1.213.872,2.421,1.3,3.633.065.181.1.371.146.557l-.129.053a19.782,19.782,0,0,1-1.191-1.79,14.4,14.4,0,0,1-1.628-5A4.444,4.444,0,0,1,31.907,44.036Z" transform="translate(-6.858 -2.665)"/><path class="cls-3" d="M46.13,43.815c.138.127.341.234.4.386a6.656,6.656,0,0,1,.562,1.714,9.048,9.048,0,0,1-1.329,5.842,5.764,5.764,0,0,1-1.188,1.257,24.23,24.23,0,0,0,1.641-4.458,12.127,12.127,0,0,0-.289-4.64Z" transform="translate(-6.858 -2.665)"/><path class="cls-3" d="M34.5,50.358c1.523,2.308,1.837,5.06,3.219,7.455-.362-.386-.755-.752-1.079-1.162a11.231,11.231,0,0,1-1.869-4.521c-.141-.579-.259-1.162-.387-1.744Z" transform="translate(-6.858 -2.665)"/><path class="cls-3" d="M45.717,41.608c2.167.725,3.921,3.5,3.966,6.275-.526-1.024-1.015-2.161-1.676-3.212S46.519,42.667,45.717,41.608Z" transform="translate(-6.858 -2.665)"/><path class="cls-3" d="M47.643,48.965l-.379,1.727-.241-.046.421-1.712Z" transform="translate(-6.858 -2.665)"/></svg>